<svg width="48" height="48" viewBox="0 0 48 48" fill="none" xmlns="http://www.w3.org/2000/svg">
<g clip-path="url(#clip0_353_4404)">
<mask id="mask0_353_4404" style="mask-type:luminance" maskUnits="userSpaceOnUse" x="0" y="0" width="48" height="48">
<path d="M0 0H48V48H0V0Z" fill="white"/>
</mask>
<g mask="url(#mask0_353_4404)">
<path fill-rule="evenodd" clip-rule="evenodd" d="M24 0C10.744 0 0 10.746 0 24C0 37.254 10.744 48 24 48C37.254 48 48 37.254 48 24C48 10.746 37.254 0 24 0ZM24.28 38.036C16.544 38.036 10.28 31.756 10.28 24C10.28 16.244 16.544 9.964 24.28 9.964C28.06 9.964 31.22 11.358 33.644 13.622L29.696 17.578V17.57C28.226 16.166 26.362 15.446 24.28 15.446C19.66 15.446 15.906 19.358 15.906 23.992C15.906 28.622 19.66 32.546 24.28 32.546C28.472 32.546 31.324 30.142 31.912 26.842H24.28V21.368H37.45C37.626 22.308 37.72 23.288 37.72 24.316C37.72 32.336 32.366 38.036 24.28 38.036Z" fill="url(#paint0_linear_353_4404)"/>
</g>
</g>
<defs>
<linearGradient id="paint0_linear_353_4404" x1="9.39131" y1="6.26087" x2="37.5652" y2="42.7826" gradientUnits="userSpaceOnUse">
<stop stop-color="#00B2FF"/>
<stop offset="1" stop-color="#00B2FF"/>
</linearGradient>
<clipPath id="clip0_353_4404">
<rect width="48" height="48" fill="white"/>
</clipPath>
</defs>
</svg>
