<svg width="48" height="48" viewBox="0 0 48 48" fill="none" xmlns="http://www.w3.org/2000/svg">
<path d="M0 24C0 10.7452 10.7452 0 24 0C37.2548 0 48 10.7452 48 24C48 37.2548 37.2548 48 24 48C10.7452 48 0 37.2548 0 24Z" fill="url(#paint0_linear_842_646)"/>
<path d="M29.8186 16.1772C31.7268 16.1772 33.7482 17.2229 35.1868 19.0269C30.4706 21.6274 31.2346 28.403 36.0002 30.2153C35.3451 31.6756 35.0297 32.3282 34.1858 33.6216C33.0083 35.4273 31.3477 37.6763 29.2883 37.6929C27.4606 37.7127 26.9892 36.4945 24.5081 36.5093C22.0267 36.5225 21.509 37.7159 19.678 37.6978C17.6204 37.6795 16.0468 35.6509 14.8694 33.8452C11.5752 28.7998 11.2288 22.8767 13.26 19.7261C14.7051 17.4891 16.9848 16.1802 19.1262 16.1802C21.3054 16.1802 22.6769 17.3833 24.4817 17.3833C26.2322 17.3832 27.298 16.1773 29.8186 16.1772ZM29.2668 9.6001C29.5181 11.3067 28.8238 12.9787 27.9075 14.1616C26.9271 15.4304 25.2371 16.412 23.5999 16.3608C23.301 14.7269 24.0662 13.0433 24.9973 11.9116C26.0187 10.6627 27.7692 9.70422 29.2668 9.6001Z" fill="white"/>
<defs>
<linearGradient id="paint0_linear_842_646" x1="12" y1="5" x2="38" y2="39" gradientUnits="userSpaceOnUse">
<stop stop-color="#00B2FF"/>
<stop offset="1" stop-color="#00B2FF"/>
</linearGradient>
</defs>
</svg>
