<svg width="30" height="28" viewBox="0 0 30 28" fill="none" xmlns="http://www.w3.org/2000/svg">
<g filter="url(#filter0_d_266_3106)">
<path d="M15.003 19C10.287 19 7.93 19 6.465 17.535C5 16.072 5 13.715 5 9V5.944C5 4.128 5 3.22 5.38 2.538C5.65114 2.05208 6.05208 1.65114 6.538 1.38C7.22 1 8.128 1 9.946 1C11.11 1 11.692 1 12.2 1.191C13.363 1.627 13.843 2.684 14.368 3.733L15.003 5M11.002 5H19.754C21.861 5 22.914 5 23.672 5.506C23.9996 5.72464 24.281 6.00565 24.5 6.333C24.894 6.923 24.98 7.693 25 9M21 17.773C22.767 17.773 24.2 16.308 24.2 14.5C24.2 12.693 22.767 11.227 21 11.227M21 17.773C19.233 17.773 17.8 16.308 17.8 14.5C17.8 12.693 19.233 11.227 21 11.227M21 17.773V19V17.773ZM21 11.227V10V11.227ZM18.091 12.715L17.001 12.045L18.091 12.715ZM25 16.956L23.91 16.286L25 16.956ZM23.909 12.716L24.999 12.046L23.909 12.716ZM17 16.956L18.09 16.286L17 16.956Z" fill="#00B2FF"/>
<path d="M15.003 19C10.287 19 7.93 19 6.465 17.535C5 16.072 5 13.715 5 9V5.944C5 4.128 5 3.22 5.38 2.538C5.65114 2.05208 6.05208 1.65114 6.538 1.38C7.22 1 8.128 1 9.946 1C11.11 1 11.692 1 12.2 1.191C13.363 1.627 13.843 2.684 14.368 3.733L15.003 5M11.002 5H19.754C21.861 5 22.914 5 23.672 5.506C23.9996 5.72464 24.281 6.00565 24.5 6.333C24.894 6.923 24.98 7.693 25 9M21 17.773C22.767 17.773 24.2 16.308 24.2 14.5C24.2 12.693 22.767 11.227 21 11.227M21 17.773C19.233 17.773 17.8 16.308 17.8 14.5C17.8 12.693 19.233 11.227 21 11.227M21 17.773V19M21 11.227V10M18.091 12.715L17.001 12.045M25 16.956L23.91 16.286M23.909 12.716L24.999 12.046M17 16.956L18.09 16.286" stroke="#00B2FF" stroke-width="1.5" stroke-linecap="round"/>
</g>
<defs>
<filter id="filter0_d_266_3106" x="0.25" y="0.25" width="29.5" height="27.5" filterUnits="userSpaceOnUse" color-interpolation-filters="sRGB">
<feFlood flood-opacity="0" result="BackgroundImageFix"/>
<feColorMatrix in="SourceAlpha" type="matrix" values="0 0 0 0 0 0 0 0 0 0 0 0 0 0 0 0 0 0 127 0" result="hardAlpha"/>
<feOffset dy="4"/>
<feGaussianBlur stdDeviation="2"/>
<feComposite in2="hardAlpha" operator="out"/>
<feColorMatrix type="matrix" values="0 0 0 0 0 0 0 0 0 0 0 0 0 0 0 0 0 0 0.25 0"/>
<feBlend mode="normal" in2="BackgroundImageFix" result="effect1_dropShadow_266_3106"/>
<feBlend mode="normal" in="SourceGraphic" in2="effect1_dropShadow_266_3106" result="shape"/>
</filter>
</defs>
</svg>
