<svg width="30" height="30" viewBox="0 0 30 30" fill="none" xmlns="http://www.w3.org/2000/svg">
<g filter="url(#filter0_d_209_913)">
<path d="M14.83 13V12.379C14.8295 11.9697 14.9368 11.5676 15.1412 11.2129C15.3455 10.8583 15.6397 10.5638 15.994 10.359C17.12 9.699 17.508 8.302 16.848 7.176C16.188 6.05 14.791 5.662 13.665 6.322C12.965 6.75 12.5 7.487 12.5 8.341M15 16H14.992M25 11C25 5.477 20.523 1 15 1C9.477 1 5 5.477 5 11C5 16.523 9.477 21 15 21C20.523 21 25 16.523 25 11Z" stroke="#FFFAFA" stroke-width="1.5" stroke-miterlimit="10" stroke-linecap="round" stroke-linejoin="round" shape-rendering="crispEdges"/>
</g>
<defs>
<filter id="filter0_d_209_913" x="0.25" y="0.25" width="29.5" height="29.5" filterUnits="userSpaceOnUse" color-interpolation-filters="sRGB">
<feFlood flood-opacity="0" result="BackgroundImageFix"/>
<feColorMatrix in="SourceAlpha" type="matrix" values="0 0 0 0 0 0 0 0 0 0 0 0 0 0 0 0 0 0 127 0" result="hardAlpha"/>
<feOffset dy="4"/>
<feGaussianBlur stdDeviation="2"/>
<feComposite in2="hardAlpha" operator="out"/>
<feColorMatrix type="matrix" values="0 0 0 0 0 0 0 0 0 0 0 0 0 0 0 0 0 0 0.25 0"/>
<feBlend mode="normal" in2="BackgroundImageFix" result="effect1_dropShadow_209_913"/>
<feBlend mode="normal" in="SourceGraphic" in2="effect1_dropShadow_209_913" result="shape"/>
</filter>
</defs>
</svg>
