<svg width="27" height="30" viewBox="0 0 27 30" fill="none" xmlns="http://www.w3.org/2000/svg">
<g filter="url(#filter0_d_209_901)">
<path d="M23 15.3989L17.4329 21.1206L14.7443 18.3521L15.6439 17.4292L17.4329 19.2544L22.1005 14.4761L23 15.3989ZM12.9553 7.0625H9.11731V5.75H12.9553V7.0625ZM12.9553 9.6875H9.11731V8.375H12.9553V9.6875ZM9.11731 11H12.9553V12.3125H9.11731V11ZM7.83798 7.0625H6.55865V5.75H7.83798V7.0625ZM7.83798 9.6875H6.55865V8.375H7.83798V9.6875ZM6.55865 11H7.83798V12.3125H6.55865V11ZM14.2346 7.0625V1.8125H5.27933V20.1875H14.2346V21.5H4V0.5H15.1441L20.6312 6.12939V13.625L19.3519 14.9375V7.0625H14.2346ZM15.5139 5.75H18.4424L15.5139 2.74561V5.75Z" fill="#FFF5F5"/>
</g>
<defs>
<filter id="filter0_d_209_901" x="0" y="0.5" width="27" height="29" filterUnits="userSpaceOnUse" color-interpolation-filters="sRGB">
<feFlood flood-opacity="0" result="BackgroundImageFix"/>
<feColorMatrix in="SourceAlpha" type="matrix" values="0 0 0 0 0 0 0 0 0 0 0 0 0 0 0 0 0 0 127 0" result="hardAlpha"/>
<feOffset dy="4"/>
<feGaussianBlur stdDeviation="2"/>
<feComposite in2="hardAlpha" operator="out"/>
<feColorMatrix type="matrix" values="0 0 0 0 0 0 0 0 0 0 0 0 0 0 0 0 0 0 0.25 0"/>
<feBlend mode="normal" in2="BackgroundImageFix" result="effect1_dropShadow_209_901"/>
<feBlend mode="normal" in="SourceGraphic" in2="effect1_dropShadow_209_901" result="shape"/>
</filter>
</defs>
</svg>
