<svg width="26" height="26" viewBox="0 0 26 26" fill="none" xmlns="http://www.w3.org/2000/svg">
<g filter="url(#filter0_d_209_2170)">
<path fill-rule="evenodd" clip-rule="evenodd" d="M9 4C9 2.93913 9.42143 1.92172 10.1716 1.17157C10.9217 0.421427 11.9391 0 13 0C14.0609 0 15.0783 0.421427 15.8284 1.17157C16.5786 1.92172 17 2.93913 17 4C17 5.06087 16.5786 6.07828 15.8284 6.82843C15.0783 7.57857 14.0609 8 13 8C11.9391 8 10.9217 7.57857 10.1716 6.82843C9.42143 6.07828 9 5.06087 9 4ZM9 10C7.67392 10 6.40215 10.5268 5.46447 11.4645C4.52678 12.4021 4 13.6739 4 15C4 15.7956 4.31607 16.5587 4.87868 17.1213C5.44129 17.6839 6.20435 18 7 18H19C19.7956 18 20.5587 17.6839 21.1213 17.1213C21.6839 16.5587 22 15.7956 22 15C22 13.6739 21.4732 12.4021 20.5355 11.4645C19.5979 10.5268 18.3261 10 17 10H9Z" fill="#00B2FF"/>
</g>
<defs>
<filter id="filter0_d_209_2170" x="0" y="0" width="26" height="26" filterUnits="userSpaceOnUse" color-interpolation-filters="sRGB">
<feFlood flood-opacity="0" result="BackgroundImageFix"/>
<feColorMatrix in="SourceAlpha" type="matrix" values="0 0 0 0 0 0 0 0 0 0 0 0 0 0 0 0 0 0 127 0" result="hardAlpha"/>
<feOffset dy="4"/>
<feGaussianBlur stdDeviation="2"/>
<feComposite in2="hardAlpha" operator="out"/>
<feColorMatrix type="matrix" values="0 0 0 0 0 0 0 0 0 0 0 0 0 0 0 0 0 0 0.25 0"/>
<feBlend mode="normal" in2="BackgroundImageFix" result="effect1_dropShadow_209_2170"/>
<feBlend mode="normal" in="SourceGraphic" in2="effect1_dropShadow_209_2170" result="shape"/>
</filter>
</defs>
</svg>
