<svg width="21" height="31" viewBox="0 0 21 31" fill="none" xmlns="http://www.w3.org/2000/svg">
<g filter="url(#filter0_d_209_701)">
<path d="M9.95455 22.1818V0.363635H11.3523V22.1818H9.95455ZM14.6591 6.90909C14.5568 6.04545 14.142 5.375 13.4148 4.89773C12.6875 4.42045 11.7955 4.18182 10.7386 4.18182C9.96591 4.18182 9.28977 4.30682 8.71023 4.55682C8.13636 4.80682 7.6875 5.15057 7.36364 5.58807C7.04545 6.02557 6.88636 6.52273 6.88636 7.07954C6.88636 7.54545 6.99716 7.94602 7.21875 8.28125C7.44602 8.6108 7.7358 8.88636 8.08807 9.10795C8.44034 9.32386 8.80966 9.50284 9.19602 9.64489C9.58239 9.78125 9.9375 9.89205 10.2614 9.97727L12.0341 10.4545C12.4886 10.5739 12.9943 10.7386 13.5511 10.9489C14.1136 11.1591 14.6506 11.446 15.1619 11.8097C15.679 12.1676 16.1051 12.6278 16.4403 13.1903C16.7756 13.7528 16.9432 14.4432 16.9432 15.2614C16.9432 16.2045 16.696 17.0568 16.2017 17.8182C15.7131 18.5795 14.9972 19.1847 14.054 19.6335C13.1165 20.0824 11.9773 20.3068 10.6364 20.3068C9.38636 20.3068 8.30398 20.1051 7.3892 19.7017C6.48011 19.2983 5.7642 18.7358 5.24148 18.0142C4.72443 17.2926 4.43182 16.4545 4.36364 15.5H6.54545C6.60227 16.1591 6.82386 16.7045 7.21023 17.1364C7.60227 17.5625 8.09659 17.8807 8.69318 18.0909C9.29545 18.2955 9.94318 18.3977 10.6364 18.3977C11.4432 18.3977 12.1676 18.267 12.8097 18.0057C13.4517 17.7386 13.9602 17.3693 14.3352 16.8977C14.7102 16.4205 14.8977 15.8636 14.8977 15.2273C14.8977 14.6477 14.7358 14.1761 14.4119 13.8125C14.0881 13.4489 13.6619 13.1534 13.1335 12.9261C12.6051 12.6989 12.0341 12.5 11.4205 12.3295L9.27273 11.7159C7.90909 11.3239 6.82955 10.7642 6.03409 10.0369C5.23864 9.30966 4.84091 8.35795 4.84091 7.18182C4.84091 6.20454 5.10511 5.35227 5.63352 4.625C6.16761 3.89205 6.88352 3.32386 7.78125 2.92045C8.68466 2.51136 9.69318 2.30682 10.8068 2.30682C11.9318 2.30682 12.9318 2.50852 13.8068 2.91193C14.6818 3.30966 15.375 3.85511 15.8864 4.54829C16.4034 5.24148 16.6761 6.02841 16.7045 6.90909H14.6591Z" fill="#3E3B3B"/>
</g>
<defs>
<filter id="filter0_d_209_701" x="0.36377" y="0.36377" width="20.5796" height="29.8179" filterUnits="userSpaceOnUse" color-interpolation-filters="sRGB">
<feFlood flood-opacity="0" result="BackgroundImageFix"/>
<feColorMatrix in="SourceAlpha" type="matrix" values="0 0 0 0 0 0 0 0 0 0 0 0 0 0 0 0 0 0 127 0" result="hardAlpha"/>
<feOffset dy="4"/>
<feGaussianBlur stdDeviation="2"/>
<feComposite in2="hardAlpha" operator="out"/>
<feColorMatrix type="matrix" values="0 0 0 0 0 0 0 0 0 0 0 0 0 0 0 0 0 0 0.25 0"/>
<feBlend mode="normal" in2="BackgroundImageFix" result="effect1_dropShadow_209_701"/>
<feBlend mode="normal" in="SourceGraphic" in2="effect1_dropShadow_209_701" result="shape"/>
</filter>
</defs>
</svg>
