<svg width="28" height="28" viewBox="0 0 28 28" fill="none" xmlns="http://www.w3.org/2000/svg">
<g filter="url(#filter0_d_209_2404)">
<path d="M21.32 10.99L21.31 11.01C21.35 10.68 21.39 10.34 21.39 10C21.39 9.66 21.36 9.34 21.32 9.01L21.33 9.03L23.77 7.11L21.34 2.89L18.47 4.05L18.48 4.06C17.96 3.66 17.39 3.32 16.77 3.06H16.78L16.32 0H11.45L11.01 3.07H11.02C10.4 3.33 9.83 3.67 9.31 4.07L9.32 4.06L6.44 2.89L4 7.11L6.44 9.03L6.45 9.01C6.41 9.34 6.38 9.66 6.38 10C6.38 10.34 6.41 10.68 6.46 11.01L6.45 10.99L4.35 12.64L4.02 12.9L6.45 17.1L9.33 15.95L9.31 15.91C9.84 16.32 10.41 16.66 11.04 16.92H11.01L11.46 20H16.31C16.31 20 16.34 19.82 16.37 19.58L16.75 16.93H16.74C17.36 16.67 17.94 16.33 18.47 15.92L18.45 15.96L21.33 17.11L23.76 12.91C23.76 12.91 23.62 12.79 23.43 12.65L21.32 10.99ZM13.88 13.5C11.95 13.5 10.38 11.93 10.38 10C10.38 8.07 11.95 6.5 13.88 6.5C15.81 6.5 17.38 8.07 17.38 10C17.38 11.93 15.81 13.5 13.88 13.5Z" fill="#00B2FF"/>
</g>
<defs>
<filter id="filter0_d_209_2404" x="0" y="0" width="27.7695" height="28" filterUnits="userSpaceOnUse" color-interpolation-filters="sRGB">
<feFlood flood-opacity="0" result="BackgroundImageFix"/>
<feColorMatrix in="SourceAlpha" type="matrix" values="0 0 0 0 0 0 0 0 0 0 0 0 0 0 0 0 0 0 127 0" result="hardAlpha"/>
<feOffset dy="4"/>
<feGaussianBlur stdDeviation="2"/>
<feComposite in2="hardAlpha" operator="out"/>
<feColorMatrix type="matrix" values="0 0 0 0 0 0 0 0 0 0 0 0 0 0 0 0 0 0 0.25 0"/>
<feBlend mode="normal" in2="BackgroundImageFix" result="effect1_dropShadow_209_2404"/>
<feBlend mode="normal" in="SourceGraphic" in2="effect1_dropShadow_209_2404" result="shape"/>
</filter>
</defs>
</svg>
